<?xml version="1.0" encoding="utf-8"?>
<!-- Generator: Adobe Illustrator 22.1.0, SVG Export Plug-In . SVG Version: 6.00 Build 0)  -->
<svg version="1.1" id="Laag_1" xmlns="http://www.w3.org/2000/svg" xmlns:xlink="http://www.w3.org/1999/xlink" x="0px" y="0px"
	 viewBox="0 0 841.9 595.3" style="enable-background:new 0 0 841.9 595.3;" xml:space="preserve">
<style type="text/css">
	.st0{fill:#FFFFFF;}
	.st1{display:none;fill:url(#SVGID_1_);}
	.st2{display:none;opacity:0.51;fill:#FFFFFF;enable-background:new    ;}
	.st3{display:none;opacity:0.49;}
	.st4{display:inline;fill:#FFFFFF;}
	.st5{display:none;opacity:0.58;}
	.st6{display:inline;fill:#262D61;}
	.st7{fill:#666666;}
	.st8{display:none;opacity:0.51;fill:url(#SVGID_2_);enable-background:new    ;}
	.st9{display:none;opacity:0.7;fill:url(#SVGID_3_);enable-background:new    ;}
	.st10{display:none;fill:none;stroke:#863312;stroke-width:0.5878;stroke-miterlimit:1;}
	.st11{display:inline;fill:#33190E;}
	.st12{display:none;fill:url(#SVGID_4_);}
	.st13{display:none;fill:url(#SVGID_5_);}
	.st14{display:none;opacity:0.51;fill:url(#SVGID_6_);enable-background:new    ;}
	.st15{display:none;fill:none;stroke:#4161AB;stroke-width:0.25;stroke-miterlimit:1;}
	.st16{display:inline;fill:#3F5EA8;}
	.st17{opacity:0.7;fill:#FFFFFF;enable-background:new    ;}
</style>
<circle class="st0" cx="91.4" cy="91.5" r="61.1"/>
<linearGradient id="SVGID_1_" gradientUnits="userSpaceOnUse" x1="109.76" y1="409.9813" x2="109.76" y2="532.1013" gradientTransform="matrix(1 0 0 -1 0 598)">
	<stop  offset="0" style="stop-color:#28306B;stop-opacity:0.22"/>
	<stop  offset="0.5" style="stop-color:#222853"/>
	<stop  offset="0.5242" style="stop-color:#26345B;stop-opacity:0.958"/>
	<stop  offset="0.5708" style="stop-color:#2C4F6B;stop-opacity:0.8767"/>
	<stop  offset="0.6202" style="stop-color:#326979;stop-opacity:0.7909"/>
	<stop  offset="0.6713" style="stop-color:#3A8185;stop-opacity:0.702"/>
	<stop  offset="0.7245" style="stop-color:#43958E;stop-opacity:0.6093"/>
	<stop  offset="0.7808" style="stop-color:#4DA594;stop-opacity:0.5114"/>
	<stop  offset="0.8414" style="stop-color:#54B198;stop-opacity:0.406"/>
	<stop  offset="0.9093" style="stop-color:#59B89B;stop-opacity:0.2878"/>
	<stop  offset="1" style="stop-color:#5ABA9B;stop-opacity:0.13"/>
</linearGradient>
<circle class="st1" cx="109.8" cy="127" r="61.1"/>
<circle class="st2" cx="109.8" cy="127" r="61.1"/>
<g class="st3">
	<path class="st4" d="M109.8,186.3c-22.7-0.3-43.1-12.8-53.7-32.9c-11.5-22-6.8-48.7,9.7-66.7c15.4-16.8,39.7-22.8,61.4-16.5
		c21.5,6.3,37.5,25,41.7,46.7C176.1,153.1,145.3,185.9,109.8,186.3c0,0,0,1.8,0,1.8c22.7-0.3,43.1-12.8,53.7-32.9
		c8.2-15.7,8.6-35.2,2.2-51.6c-8.2-20.9-28.2-35.2-50.3-37.5c-22.6-2.3-44.5,9.2-56.6,28.1c-10.5,16.4-11.8,38.1-4.8,56.1
		c8.9,22.8,31.7,37.4,55.9,37.7C109.8,188,109.8,186.3,109.8,186.3L109.8,186.3z"/>
</g>
<g class="st5">
	<path class="st6" d="M170.8,126.9c-0.3,23.6-13.7,44.8-34.9,55.1c-20.5,10-45.5,6.8-63.5-6.8c-20-15.1-28-41.7-21.2-65.6
		C57.4,88.1,75.8,72,97.4,67.3c37.6-8.1,72.9,22.1,73.4,59.8C170.8,127.2,170.8,126.9,170.8,126.9c-0.2-21.3-11.1-40.7-29.1-52.1
		c-19.3-12.2-44.5-11.6-63.9,0c-36.1,21.7-38.2,73.6-6.4,99.9c18.7,15.4,45.5,17.5,66.9,6.5c20.1-10.4,32.3-31.7,32.5-54
		C170.8,127.1,170.8,126.9,170.8,126.9z"/>
</g>
<path class="st7" d="M73.1,79.5H81v-7.1c0-3.1,0.1-8,2.5-11c2.6-3.2,6.1-5.3,12.2-5.3c9.9,0,14.1,1.3,14.1,1.3l-2,10.8
	c0,0-3.3-0.9-6.3-0.9c-3,0-5.8,1-5.8,3.9v8.3h12.5l-0.9,10.6H95.7V127H81V90.1h-7.9L73.1,79.5L73.1,79.5z"/>
<circle class="st0" cx="246.9" cy="91.5" r="61.1"/>
<linearGradient id="SVGID_2_" gradientUnits="userSpaceOnUse" x1="424.02" y1="305.7" x2="424.02" y2="427.82" gradientTransform="matrix(1 0 0 -1 0 598)">
	<stop  offset="0" style="stop-color:#441E0F"/>
	<stop  offset="0.5" style="stop-color:#20110A"/>
	<stop  offset="0.5688" style="stop-color:#2C160D"/>
	<stop  offset="0.6877" style="stop-color:#391B0F"/>
	<stop  offset="0.8214" style="stop-color:#411D0F"/>
	<stop  offset="1" style="stop-color:#441E0F"/>
</linearGradient>
<circle class="st8" cx="424" cy="231.2" r="61.1"/>
<linearGradient id="SVGID_3_" gradientUnits="userSpaceOnUse" x1="424.02" y1="427.82" x2="424.02" y2="305.7" gradientTransform="matrix(1 0 0 -1 0 598)">
	<stop  offset="0" style="stop-color:#FFFFFF;stop-opacity:0.77"/>
	<stop  offset="0.2033" style="stop-color:#FFFFFF;stop-opacity:0.65"/>
	<stop  offset="0.3448" style="stop-color:#FFFFFF;stop-opacity:0.65"/>
	<stop  offset="0.3462" style="stop-color:#FFFFFF;stop-opacity:0.65"/>
	<stop  offset="0.511" style="stop-color:#FFFFFF;stop-opacity:0"/>
	<stop  offset="0.5128" style="stop-color:#FBFAFA;stop-opacity:5.945700e-04"/>
	<stop  offset="0.5327" style="stop-color:#CECDCD;stop-opacity:7.094500e-03"/>
	<stop  offset="0.5544" style="stop-color:#A6A4A3;stop-opacity:1.420000e-02"/>
	<stop  offset="0.5784" style="stop-color:#827F7D;stop-opacity:2.200000e-02"/>
	<stop  offset="0.6045" style="stop-color:#635F5D;stop-opacity:3.060000e-02"/>
	<stop  offset="0.6333" style="stop-color:#484441;stop-opacity:4.000000e-02"/>
	<stop  offset="0.6659" style="stop-color:#332E2B;stop-opacity:5.070000e-02"/>
	<stop  offset="0.7039" style="stop-color:#231D1A;stop-opacity:6.310000e-02"/>
	<stop  offset="0.7509" style="stop-color:#17120F;stop-opacity:7.850000e-02"/>
	<stop  offset="0.8169" style="stop-color:#110B08;stop-opacity:0.1001"/>
	<stop  offset="1" style="stop-color:#0F0906;stop-opacity:0.16"/>
</linearGradient>
<circle class="st9" cx="424" cy="231.2" r="61.1"/>
<g class="st3">
	<path class="st4" d="M424,291.6c-22.5-0.2-42.9-12.6-53.7-32.4c-11.9-21.9-7.9-49.1,8.1-67.7c14.8-17.2,38.6-24,60.4-18.8
		c21.6,5.2,38.4,22.8,44,44.1C492.9,254.7,462,291.2,424,291.6c0,0,0,0.7,0,0.7c22.5-0.2,42.9-12.6,53.7-32.4
		c8.3-15.3,9.1-34,3.2-50.2c-7.5-20.9-26.9-35.8-48.7-39c-22.4-3.3-44.7,7.1-57.8,25.2c-11.8,16.3-14.1,38.1-7.3,56.9
		c8.6,23.7,32,39.3,56.9,39.6C424,292.3,424,291.6,424,291.6z"/>
</g>
<circle class="st10" cx="424" cy="231.2" r="61.1"/>
<g class="st5">
	<path class="st11" d="M485.1,231.2c-0.3,23.6-13.7,44.8-34.9,55.2c-20.5,10-45.5,6.8-63.5-6.8c-20-15.1-28.1-41.8-21.2-65.7
		c6.2-21.5,24.6-37.6,46.2-42.3C449.3,163.4,484.6,193.6,485.1,231.2L485.1,231.2c-0.2-21.3-11.1-40.7-29.1-52.1
		c-19.3-12.2-44.5-11.6-63.9,0c-36.1,21.7-38.1,73.5-6.4,99.7c18.7,15.4,45.5,17.5,66.9,6.5C472.6,275,484.8,253.6,485.1,231.2
		L485.1,231.2L485.1,231.2z"/>
</g>
<path class="st7" d="M224.6,61.5h44.7c4.2,0,7.7,3.5,7.7,7.7v44.7c0,4.2-3.5,7.7-7.7,7.7h-44.7c-4.2,0-7.7-3.5-7.7-7.7V69.2
	C216.8,65,220.3,61.5,224.6,61.5L224.6,61.5z M260.6,68.2c-1.5,0-2.7,1.2-2.7,2.7v6.5c0,1.5,1.2,2.7,2.7,2.7h6.8
	c1.5,0,2.7-1.2,2.7-2.7v-6.5c0-1.5-1.2-2.7-2.7-2.7H260.6z M270.2,86.9h-5.3c0.5,1.6,0.8,3.4,0.8,5.2c0,10-8.4,18.1-18.7,18.1
	c-10.3,0-18.7-8.1-18.7-18.1c0-1.8,0.3-3.5,0.8-5.2h-5.5v25.4c0,1.3,1.1,2.4,2.4,2.4h41.9c1.3,0,2.4-1.1,2.4-2.4L270.2,86.9
	L270.2,86.9z M247,79.7c-6.7,0-12.1,5.2-12.1,11.7s5.4,11.7,12.1,11.7c6.7,0,12.1-5.2,12.1-11.7C259,84.9,253.6,79.7,247,79.7z"/>
<linearGradient id="SVGID_4_" gradientUnits="userSpaceOnUse" x1="717.59" y1="445.44" x2="717.59" y2="567.56" gradientTransform="matrix(1 0 0 -1 0 598)">
	<stop  offset="0" style="stop-color:#365BA6"/>
	<stop  offset="0.618" style="stop-color:#3C60AA"/>
	<stop  offset="0.6292" style="stop-color:#405FA9"/>
	<stop  offset="0.9831" style="stop-color:#58C3E5"/>
</linearGradient>
<circle class="st12" cx="717.6" cy="91.5" r="61.1"/>
<linearGradient id="SVGID_5_" gradientUnits="userSpaceOnUse" x1="717.59" y1="445.44" x2="717.59" y2="567.56" gradientTransform="matrix(1 0 0 -1 0 598)">
	<stop  offset="0" style="stop-color:#3F5FA9;stop-opacity:0.22"/>
	<stop  offset="0.5" style="stop-color:#2C4E9D"/>
	<stop  offset="0.5291" style="stop-color:#2F5EA1;stop-opacity:0.9494"/>
	<stop  offset="0.5822" style="stop-color:#3B78A3;stop-opacity:0.8569"/>
	<stop  offset="0.6384" style="stop-color:#4A8FA0;stop-opacity:0.7592"/>
	<stop  offset="0.697" style="stop-color:#5AA099;stop-opacity:0.6572"/>
	<stop  offset="0.7589" style="stop-color:#66AE92;stop-opacity:0.5495"/>
	<stop  offset="0.8255" style="stop-color:#70B78C;stop-opacity:0.4336"/>
	<stop  offset="0.9002" style="stop-color:#75BD87;stop-opacity:0.3036"/>
	<stop  offset="1" style="stop-color:#77BF85;stop-opacity:0.13"/>
</linearGradient>
<circle class="st13" cx="717.6" cy="91.5" r="61.1"/>
<radialGradient id="SVGID_6_" cx="717.59" cy="265.504" r="61.0572" gradientTransform="matrix(1 0 0 -0.5 0 224.252)" gradientUnits="userSpaceOnUse">
	<stop  offset="0" style="stop-color:#77BF85;stop-opacity:0"/>
	<stop  offset="0.1341" style="stop-color:#74BE8F;stop-opacity:9.390000e-02"/>
	<stop  offset="0.3796" style="stop-color:#6CBAA6;stop-opacity:0.2657"/>
	<stop  offset="0.7062" style="stop-color:#60B5C8;stop-opacity:0.4943"/>
	<stop  offset="1" style="stop-color:#52AFE3;stop-opacity:0.7"/>
</radialGradient>
<circle class="st14" cx="717.6" cy="91.5" r="61.1"/>
<circle class="st15" cx="717.6" cy="91.5" r="61.1"/>
<g class="st5">
	<path class="st16" d="M778.6,91.1c-0.3,23.5-13.8,44.7-34.9,55c-20.5,10-45.5,6.8-63.5-6.8c-19.7-14.9-28-41-21.2-64.6
		c6.2-21.5,24.6-37.6,46.2-42.3c37.5-8.1,72.9,22,73.4,59.6C778.7,92.4,778.7,91.2,778.6,91.1c-0.2-21.4-11-40.8-29.1-52.2
		c-19.3-12.2-44.5-11.6-63.9,0c-36.3,21.8-38.3,74.5-6.4,100.8c18.7,15.4,45.5,17.5,66.9,6.5c20.2-10.4,32.3-31.8,32.5-54.2
		C778.6,91.8,778.6,90.6,778.6,91.1L778.6,91.1z"/>
</g>
<g>
	<circle class="st17" cx="395" cy="91.5" r="61.1"/>
	<path class="st7" d="M430.5,69.6c-2.6,1.2-5.4,1.9-8.3,2.3c3-1.8,5.3-4.7,6.4-8c-2.8,1.7-5.9,2.9-9.2,3.5
		c-2.7-2.8-6.4-4.6-10.6-4.6c-8,0-14.5,6.5-14.5,14.5c0,1.1,0.1,2.2,0.4,3.3c-12.1-0.6-22.8-6.4-30-15.2c-1.2,2.2-2,4.7-2,7.3
		c0,5,2.6,9.5,6.5,12.1c-2.4-0.1-4.6-0.7-6.6-1.8v0.2c0,7,5,12.9,11.7,14.3c-1.2,0.3-2.5,0.5-3.8,0.5c-0.9,0-1.8-0.1-2.7-0.3
		c1.8,5.8,7.2,10,13.6,10.1c-5,3.9-11.2,6.2-18.1,6.2c-1.2,0-2.3-0.1-3.5-0.2c6.4,4.1,14.1,6.5,22.3,6.5c26.7,0,41.4-22.2,41.4-41.4
		c0-0.6,0-1.3,0-1.9C426.1,75,428.5,72.5,430.5,69.6L430.5,69.6z"/>
</g>
</svg>
